<svg id="Layer" xmlns="http://www.w3.org/2000/svg" viewBox="0 0 963 289"><title>kmedia_logo</title><g id="Title"><path d="M446,176.24c-1.28-24.19-2.81-53.28-2.56-74.9h-.77c-5.88,20.33-13,42-21.74,65.89L390.49,251.4H373.61l-27.88-82.62c-8.19-24.45-15.09-46.84-20-67.43h-.51c-.51,21.62-1.79,50.71-3.33,76.7l-4.6,74.38H296.1L308.13,79h28.39l29.42,83.91c7.16,21.36,13,40.41,17.39,58.43h.77c4.35-17.5,10.49-36.55,18.16-58.43L432.95,79h28.39l10.74,173.48H450.34Z" style="fill:#666"/><path d="M519.66,194.26c.51,30.63,20,43.24,42.46,43.24,16.11,0,25.83-2.83,34.28-6.43l3.84,16.22C592.3,250.89,578.74,255,559,255c-38.11,0-60.88-25.22-60.88-62.8s22-67.18,58.06-67.18c40.41,0,51.16,35.78,51.16,58.68a85.93,85.93,0,0,1-.77,10.55Zm66-16.22c.26-14.41-5.88-36.81-31.21-36.81-22.76,0-32.74,21.11-34.53,36.81Z" style="fill:#666"/><path d="M742.19,69.69V220.26c0,11.07.26,23.68,1,32.17H723l-1-21.62h-.51c-6.91,13.9-22,24.45-42.2,24.45-29.93,0-52.95-25.48-52.95-63.32-.26-41.44,25.32-66.92,55.5-66.92,18.93,0,31.72,9,37.34,19h.51V69.69ZM719.68,178.56a40.21,40.21,0,0,0-1-9.52c-3.33-14.41-15.6-26.25-32.48-26.25-23.28,0-37.09,20.59-37.09,48.13,0,25.22,12.28,46.07,36.58,46.07,15.09,0,28.9-10,33-27a39.57,39.57,0,0,0,1-9.78Z" style="fill:#666"/><path d="M804.6,92.85c.26,7.72-5.37,13.9-14.32,13.9-7.93,0-13.56-6.18-13.56-13.9A13.76,13.76,0,0,1,790.79,78.7C799.23,78.7,804.6,84.87,804.6,92.85ZM779.53,252.43V127.86H802V252.43Z" style="fill:#666"/><path d="M907.93,252.43l-1.79-15.7h-.77c-6.91,9.78-20.21,18.53-37.86,18.53-25.07,0-37.86-17.76-37.86-35.78,0-30.11,26.6-46.59,74.43-46.33v-2.57c0-10.29-2.81-28.83-28.14-28.83A61.39,61.39,0,0,0,843.73,151l-5.12-14.93C848.85,129.4,863.68,125,879.29,125c37.86,0,47.06,26,47.06,51v46.59c0,10.81.51,21.36,2,29.86Zm-3.33-63.57c-24.55-.51-52.44,3.86-52.44,28.05,0,14.67,9.72,21.62,21.23,21.62,16.11,0,26.35-10.3,29.93-20.85a23.77,23.77,0,0,0,1.28-7.21Z" style="fill:#666"/></g><g id="Media"><path d="M243,24.68,49.78,121.92c-18.06,9.09-18,35,.09,44L243.5,262.34A24.56,24.56,0,0,0,279,240.27L278.59,46.6A24.56,24.56,0,0,0,243,24.68Zm-1.76,53.51.28,131c0,12.36-13.29,20.43-24.63,14.93L82.53,158.88a16.57,16.57,0,0,1-.06-29.75L216.54,63.37C227.86,57.82,241.21,65.83,241.24,78.19Z" style="fill:#666"/></g><path d="M68.73,36.46l37.83-.07.19,104H108c7.81-8.33,15.62-16,23-23.08l89.42-81.12,47-.08L161.5,127.82l114.57,124-44.78.08L134.58,146.11,106.8,169.83l.15,82.24-37.83.07Z" style="fill:#666"/></svg>